<?xml version="1.0" standalone="no"?>
<!DOCTYPE svg PUBLIC "-//W3C//DTD SVG 20010904//EN"
 "http://www.w3.org/TR/2001/REC-SVG-20010904/DTD/svg10.dtd">
<svg version="1.0" xmlns="http://www.w3.org/2000/svg"
 width="179.000000pt" height="119.000000pt" viewBox="0 0 179.000000 119.000000"
 preserveAspectRatio="xMidYMid meet">
<metadata>
Created by potrace 1.15, written by Peter Selinger 2001-2017
</metadata>
<g transform="translate(0.000000,119.000000) scale(0.100000,-0.100000)"
fill="#000000" stroke="none">
<path d="M782 1020 c-155 -23 -277 -129 -323 -282 -29 -96 -24 -231 11 -302
102 -206 365 -305 568 -216 96 43 202 188 232 319 38 161 -49 350 -197 428
-92 49 -192 67 -291 53z m230 -50 c122 -46 238 -201 238 -317 0 -51 -1 -53
-28 -53 l-29 0 0 73 c0 111 -45 183 -128 206 -58 16 -108 -1 -158 -54 l-42
-44 -24 35 c-37 53 -83 77 -139 72 -72 -7 -116 -33 -158 -93 -31 -46 -37 -64
-42 -124 -4 -60 -7 -69 -23 -68 -24 2 -25 34 -3 108 43 144 124 231 259 276
59 19 206 11 277 -17z m-241 -123 c30 -20 51 -46 84 -102 9 -15 15 -11 44 30
41 57 105 90 157 81 46 -9 91 -50 104 -94 11 -41 13 -122 4 -146 -8 -20 -74
-22 -74 -3 0 7 -6 22 -14 32 -13 18 -14 17 -28 -9 l-14 -28 -18 44 c-15 40
-18 42 -31 25 -7 -10 -21 -48 -31 -85 -9 -37 -20 -71 -24 -75 -4 -4 -17 31
-29 78 -13 47 -27 85 -32 85 -5 0 -14 -20 -21 -45 -7 -25 -15 -45 -19 -45 -4
0 -12 14 -18 32 -13 38 -22 31 -46 -37 -10 -27 -21 -53 -25 -58 -3 -4 -17 25
-31 65 -13 40 -28 73 -34 73 -5 0 -19 -14 -30 -32 -18 -29 -25 -32 -67 -33
l-48 0 0 53 c0 95 61 181 146 207 46 13 59 11 95 -13z m-222 -324 c51 -72 149
-154 241 -202 l76 -40 57 32 c86 48 211 167 233 222 18 42 21 45 57 45 43 0
44 -4 21 -81 -26 -87 -64 -147 -129 -201 -73 -62 -107 -77 -190 -85 -136 -13
-266 38 -360 138 -91 99 -131 259 -58 231 7 -2 30 -29 52 -59z"/>
</g>
</svg>
